<svg id="Layer_1" data-name="Layer 1" xmlns="http://www.w3.org/2000/svg" xmlns:xlink="http://www.w3.org/1999/xlink" viewBox="0 0 172 172"><defs><style>.cls-1,.cls-3{fill:#389c48;}.cls-1,.cls-2,.cls-5,.cls-6{stroke:#1d1d1b;stroke-miterlimit:10;}.cls-2,.cls-8{fill:#fdc021;}.cls-4{clip-path:url(#clip-path);}.cls-5{fill:#ededed;}.cls-6{fill:none;}.cls-7{fill:#9d9d9c;}.cls-9{clip-path:url(#clip-path-2);}</style><clipPath id="clip-path"><rect class="cls-1" x="87.83" y="1.19" width="83.31" height="83.19" rx="12.24"/></clipPath><clipPath id="clip-path-2"><rect class="cls-2" x="87.83" y="88.81" width="83.31" height="83.19" rx="12.24"/></clipPath></defs><rect class="cls-3" x="87.83" y="1.19" width="83.31" height="83.19" rx="12.24"/><g class="cls-4"><path class="cls-5" d="M62.55,86.73l40.06-40a7.45,7.45,0,0,1,10.57,0l40.06,40"/><path class="cls-5" d="M95.71,86.73l52.62-52.54a9.84,9.84,0,0,1,13.87,0l52.61,52.54"/><ellipse class="cls-5" cx="124.48" cy="25.62" rx="12.77" ry="12.75"/></g><rect class="cls-6" x="87.83" y="1.19" width="83.31" height="83.19" rx="12.24"/><rect class="cls-7" x="0.86" y="27.25" width="82.72" height="4.23" rx="2.11" transform="translate(84.45 58.73) rotate(180)"/><rect class="cls-7" x="0.86" y="36.5" width="82.72" height="4.2" rx="2.1"/><rect class="cls-7" x="0.86" y="45.96" width="82.72" height="4.2" rx="2.1"/><rect class="cls-7" x="42.68" y="55.41" width="40.91" height="4.2" rx="2.09"/><rect class="cls-8" x="87.83" y="88.81" width="83.31" height="83.19" rx="12.24"/><g class="cls-9"><path class="cls-5" d="M62.55,174.35l40.06-40a7.45,7.45,0,0,1,10.57,0l40.06,40"/><path class="cls-5" d="M95.71,174.35l52.62-52.54a9.83,9.83,0,0,1,13.87,0l52.61,52.54"/><ellipse class="cls-5" cx="124.48" cy="113.23" rx="12.77" ry="12.75"/></g><rect class="cls-6" x="87.83" y="88.81" width="83.31" height="83.19" rx="12.24"/><rect class="cls-7" x="0.86" y="114.87" width="82.72" height="4.23" rx="2.11" transform="translate(84.45 233.96) rotate(180)"/><rect class="cls-7" x="0.86" y="124.12" width="82.72" height="4.2" rx="2.1"/><rect class="cls-7" x="0.86" y="133.57" width="82.72" height="4.2" rx="2.1"/><rect class="cls-7" x="42.68" y="143.03" width="40.91" height="4.2" rx="2.09"/></svg>