<svg id="Layer_1" data-name="Layer 1" xmlns="http://www.w3.org/2000/svg" xmlns:xlink="http://www.w3.org/1999/xlink" viewBox="0 0 172 172"><defs><style>.cls-1,.cls-3{fill:#389c48;}.cls-1,.cls-2,.cls-5,.cls-6{stroke:#1d1d1b;stroke-miterlimit:10;}.cls-2,.cls-8{fill:#fa3154;}.cls-4{clip-path:url(#clip-path);}.cls-5{fill:#ededed;}.cls-6{fill:none;}.cls-7{fill:#9d9d9c;}.cls-9{clip-path:url(#clip-path-2);}</style><clipPath id="clip-path"><rect class="cls-1" x="1.58" y="1.19" width="83.31" height="83.19" rx="12.24"/></clipPath><clipPath id="clip-path-2"><rect class="cls-2" x="1.58" y="87.99" width="83.31" height="83.19" rx="12.24"/></clipPath></defs><rect class="cls-3" x="1.58" y="1.19" width="83.31" height="83.19" rx="12.24"/><g class="cls-4"><path class="cls-5" d="M-23.71,86.73l40.07-40a7.45,7.45,0,0,1,10.57,0L67,86.73"/><path class="cls-5" d="M9.46,86.73,62.08,34.19a9.83,9.83,0,0,1,13.86,0l52.62,52.54"/><ellipse class="cls-5" cx="38.23" cy="25.62" rx="12.77" ry="12.75"/></g><rect class="cls-6" x="1.58" y="1.19" width="83.31" height="83.19" rx="12.24"/><rect class="cls-7" x="88.86" y="27.25" width="82.72" height="4.23" rx="2.11"/><rect class="cls-7" x="88.86" y="36.5" width="82.07" height="4.2" rx="2.09" transform="translate(259.79 77.2) rotate(-180)"/><rect class="cls-7" x="88.86" y="45.96" width="82.07" height="4.2" rx="2.09" transform="translate(259.79 96.11) rotate(-180)"/><rect class="cls-7" x="88.86" y="55.41" width="40.91" height="4.2" rx="2.09" transform="translate(218.62 115.02) rotate(-180)"/><rect class="cls-8" x="1.58" y="87.99" width="83.31" height="83.19" rx="12.24"/><g class="cls-9"><path class="cls-5" d="M-23.71,173.54l40.07-40a7.44,7.44,0,0,1,10.57,0l40.06,40"/><path class="cls-5" d="M9.46,173.54,62.08,121a9.83,9.83,0,0,1,13.86,0l52.62,52.55"/><ellipse class="cls-5" cx="38.23" cy="112.42" rx="12.77" ry="12.75"/></g><rect class="cls-6" x="1.58" y="87.99" width="83.31" height="83.19" rx="12.24"/><rect class="cls-7" x="88.86" y="113.85" width="82.07" height="4.2" rx="2.09"/><rect class="cls-7" x="88.86" y="123.31" width="82.07" height="4.2" rx="2.09" transform="translate(259.79 250.81) rotate(-180)"/><rect class="cls-7" x="88.86" y="132.76" width="82.07" height="4.2" rx="2.09" transform="translate(259.79 269.72) rotate(-180)"/><rect class="cls-7" x="88.86" y="142.22" width="40.91" height="4.2" rx="2.09" transform="translate(218.62 288.63) rotate(-180)"/></svg>