<svg id="Layer_1" data-name="Layer 1" xmlns="http://www.w3.org/2000/svg" viewBox="0 0 260 130"><defs><style>.cls-1{fill:#fdc021;}.cls-1,.cls-2,.cls-3,.cls-4{stroke:#1d1d1b;stroke-miterlimit:10;}.cls-2{fill:#ffe3a4;}.cls-3{fill:#fff;stroke-width:1.34px;}.cls-4{fill:#389c48;}.cls-5{fill:#40d1e6;}.cls-6{fill:#ac33e6;}.cls-7{fill:#fa3154;}</style></defs><rect class="cls-1" x="0.8" y="1.24" width="83.48" height="83.48" rx="12.27" transform="translate(85.53 0.44) rotate(90)"/><rect class="cls-2" x="44.54" y="89" width="39.75" height="39.75" rx="5.84" transform="translate(173.29 44.47) rotate(90)"/><rect class="cls-3" x="0.81" y="89" width="39.75" height="39.75" rx="5.84" transform="translate(129.57 88.19) rotate(90)"/><rect class="cls-4" x="175.71" y="45.27" width="83.48" height="83.48" rx="12.27" transform="translate(130.44 304.47) rotate(-90)"/><rect class="cls-5" x="175.71" y="1.24" width="39.75" height="39.75" rx="5.84" transform="translate(174.47 216.71) rotate(-90)"/><rect class="cls-3" x="219.44" y="1.24" width="39.75" height="39.75" rx="5.84" transform="translate(218.19 260.43) rotate(-90)"/><rect class="cls-5" x="88.26" y="89" width="39.75" height="39.75" rx="5.84" transform="translate(-0.74 217.02) rotate(-90)"/><rect class="cls-2" x="131.99" y="89" width="39.75" height="39.75" rx="5.84" transform="translate(42.98 260.74) rotate(-90)"/><rect class="cls-6" x="88.26" y="45.12" width="39.75" height="39.75" rx="5.84" transform="translate(43.14 173.14) rotate(-90)"/><rect class="cls-3" x="131.99" y="45.12" width="39.75" height="39.75" rx="5.84" transform="translate(86.86 216.86) rotate(-90)"/><rect class="cls-7" x="88.26" y="1.24" width="39.75" height="39.75" rx="5.84" transform="translate(87.02 129.26) rotate(-90)"/><rect class="cls-3" x="131.99" y="1.24" width="39.75" height="39.75" rx="5.84" transform="translate(130.74 172.98) rotate(-90)"/></svg>