<svg id="Layer_1" data-name="Layer 1" xmlns="http://www.w3.org/2000/svg" viewBox="0 0 172 172"><defs><style>.cls-1{fill:#ac33e6;}.cls-2{fill:#fdc021;}.cls-2,.cls-3{stroke:#1d1d1b;stroke-miterlimit:10;}.cls-3{fill:#fff;stroke-width:1.34px;}.cls-4{fill:#40d1e6;}</style></defs><rect class="cls-1" x="0.23" y="0.58" width="83.48" height="83.48" rx="12.27"/><rect class="cls-2" x="87.99" y="0.58" width="39.75" height="39.75" rx="5.84"/><rect class="cls-3" x="87.99" y="44.31" width="39.75" height="39.75" rx="5.84"/><rect class="cls-3" x="132.02" y="44.31" width="39.75" height="39.75" rx="5.84" transform="translate(303.79 128.37) rotate(-180)"/><rect class="cls-3" x="132.02" y="0.59" width="39.75" height="39.75" rx="5.84" transform="translate(303.79 40.93) rotate(-180)"/><rect class="cls-4" x="88.29" y="87.93" width="83.48" height="83.48" rx="12.27" transform="translate(260.06 259.35) rotate(180)"/><rect class="cls-2" x="44.26" y="131.66" width="39.75" height="39.75" rx="5.84" transform="translate(128.27 303.08) rotate(180)"/><rect class="cls-3" x="44.26" y="87.94" width="39.75" height="39.75" rx="5.84" transform="translate(128.27 215.63) rotate(180)"/><rect class="cls-3" x="0.23" y="87.94" width="39.75" height="39.75" rx="5.84"/><rect class="cls-3" x="0.23" y="131.66" width="39.75" height="39.75" rx="5.84"/></svg>