<svg id="Layer_1" data-name="Layer 1" xmlns="http://www.w3.org/2000/svg" viewBox="0 0 227.26 130"><defs><style>.cls-1{fill:#ffe3a4;}.cls-1,.cls-2,.cls-3,.cls-4{stroke:#1d1d1b;stroke-miterlimit:10;}.cls-2{fill:#389c48;}.cls-3{fill:#fff;stroke-width:1.34px;}.cls-4{fill:#fdc021;}.cls-5{fill:#ac33e6;}.cls-6{fill:#40d1e6;}</style></defs><rect class="cls-1" x="131.74" y="33.83" width="95.02" height="95.02" rx="13.96" transform="translate(358.5 162.68) rotate(180)"/><rect class="cls-2" x="98.8" y="99.19" width="29.66" height="29.66" rx="4.36" transform="translate(227.26 228.04) rotate(180)"/><rect class="cls-3" x="98.8" y="66.51" width="29.66" height="29.66" rx="4.36" transform="translate(227.26 162.68) rotate(180)"/><rect class="cls-3" x="98.8" y="1.15" width="29.66" height="29.66" rx="4.36" transform="translate(97.65 129.61) rotate(-90)"/><rect class="cls-1" x="98.8" y="33.83" width="29.66" height="29.66" rx="4.36" transform="translate(64.97 162.29) rotate(-90)"/><rect class="cls-4" x="131.74" y="1.15" width="29.66" height="29.66" rx="4.36" transform="translate(130.59 162.55) rotate(-90)"/><rect class="cls-3" x="164.42" y="1.15" width="29.66" height="29.66" rx="4.36" transform="translate(163.27 195.23) rotate(-90)"/><rect class="cls-5" x="197.1" y="1.15" width="29.66" height="29.66" rx="4.36"/><rect class="cls-6" x="0.5" y="1.15" width="95.02" height="95.02" rx="13.96"/><rect class="cls-4" x="65.86" y="99.19" width="29.66" height="29.66" rx="4.36" transform="translate(194.71 33.33) rotate(90)"/><rect class="cls-3" x="33.18" y="99.19" width="29.66" height="29.66" rx="4.36" transform="translate(162.03 66.01) rotate(90)"/><rect class="cls-1" x="0.5" y="99.19" width="29.66" height="29.66" rx="4.36" transform="translate(30.66 228.04) rotate(180)"/></svg>